<?xml version="1.0" encoding="UTF-8" standalone="no"?>
<!-- Created with Inkscape (http://www.inkscape.org/) -->
<svg
   xmlns:dc="http://purl.org/dc/elements/1.1/"
   xmlns:cc="http://web.resource.org/cc/"
   xmlns:rdf="http://www.w3.org/1999/02/22-rdf-syntax-ns#"
   xmlns:svg="http://www.w3.org/2000/svg"
   xmlns="http://www.w3.org/2000/svg"
   xmlns:sodipodi="http://inkscape.sourceforge.net/DTD/sodipodi-0.dtd"
   xmlns:inkscape="http://www.inkscape.org/namespaces/inkscape"
   sodipodi:docname="logo.svg"
   sodipodi:docbase="/home/bryce/src/Gopchop/gopchop_web/images"
   height="297mm"
   width="210mm"
   inkscape:version="0.41+cvs"
   sodipodi:version="0.32"
   id="svg2">
  <metadata
     id="metadata7">
    <rdf:RDF
       id="RDF9">
      <cc:Work
         id="Work11"
         rdf:about="">
        <dc:format
           id="format13">image/svg+xml</dc:format>
        <dc:type
           rdf:resource="http://purl.org/dc/dcmitype/StillImage"
           id="type15" />
      </cc:Work>
    </rdf:RDF>
  </metadata>
  <defs
     id="defs5" />
  <sodipodi:namedview
     inkscape:current-layer="svg2"
     inkscape:window-y="156"
     inkscape:window-x="337"
     id="base"
     pagecolor="#ffffff"
     bordercolor="#666666"
     borderopacity="1.0"
     inkscape:pageopacity="0.0"
     inkscape:pageshadow="2"
     inkscape:window-width="826"
     inkscape:window-height="709"
     inkscape:cy="912.75452"
     inkscape:cx="345.61504"
     inkscape:zoom="2.4559706" />
  <path
     style="fill:#d0d0d0;fill-opacity:1.0000000"
     d="M 20.154968,277.13299 C 20.026658,274.79549 19.035358,264.55799 17.952088,254.38299 C 16.868808,244.20799 15.071308,227.33299 13.957638,216.88299 C 12.843978,206.43299 11.234728,191.80799 10.381548,184.38299 C 8.7061485,169.80259 7.6320485,158.85358 5.9835285,139.55135 C 4.2999885,119.83910 -2.3603715,54.141144 -6.0468915,20.882991 C -8.0347915,2.9489588 -9.0984315,-10.925312 -8.5874715,-12.256856 C -8.3004015,-13.004940 -6.9563015,-13.617009 -5.6005715,-13.617009 C -3.6548915,-13.617009 -3.0689515,-13.037673 -2.8191815,-10.867009 C -2.6451515,-9.3545092 -2.1652615,-8.2295092 -1.7527615,-8.3670092 C -1.3402615,-8.5045092 0.32007845,-8.6170092 1.9368785,-8.6170092 C 4.6119385,-8.6170092 4.9044385,-8.9545082 5.1868785,-12.367009 C 5.4962185,-16.104660 5.5153485,-16.119440 10.997238,-16.855317 C 14.022238,-17.261387 24.822238,-18.767430 34.997238,-20.202079 C 62.526458,-24.083630 75.212458,-25.519520 88.132108,-26.216257 L 99.766968,-26.843707 L 100.42967,-17.480358 C 100.79416,-12.330516 101.52060,-4.9670092 102.04397,-1.1170092 C 103.85028,12.170234 105.97504,30.967854 108.54342,56.382991 C 109.96074,70.407991 111.29653,83.232991 111.51183,84.882991 C 114.47450,107.58781 115.35764,120.29866 115.69795,145.13299 L 116.08506,173.38299 L 111.04115,173.38299 C 106.18833,173.38299 105.99990,173.48717 106.06753,176.13299 C 106.10618,177.64549 106.47749,179.75009 106.89266,180.80988 C 107.52718,182.42959 107.74285,182.48832 108.24557,181.17825 C 108.58241,180.30045 110.40587,179.43735 112.42043,179.20216 L 115.99724,178.78459 L 115.99724,183.68883 L 115.99724,188.59306 L 111.99724,188.21160 L 107.99724,187.83014 L 107.99724,191.60656 C 107.99724,195.34573 108.03671,195.38299 111.99724,195.38299 L 115.99724,195.38299 L 115.99724,199.94941 C 115.99724,204.34101 115.89195,204.50372 113.24724,204.19941 C 110.98640,203.93927 110.38070,203.26042 109.84205,200.38299 C 109.47121,198.40197 109.33542,200.07449 109.52916,204.23677 C 109.71743,208.28135 110.12476,211.84385 110.43435,212.15343 C 110.74394,212.46302 110.99724,212.19132 110.99724,211.54966 C 110.99724,210.90799 112.12224,210.38299 113.49724,210.38299 C 115.79864,210.38299 115.99724,210.74547 115.99724,214.94585 C 115.99724,219.10373 115.79754,219.48094 113.74724,219.19585 C 111.74959,218.91808 111.52203,219.27554 111.71823,222.38299 C 112.10931,228.57682 112.20425,228.82037 113.52415,227.01530 C 115.42736,224.41251 115.99724,225.07332 115.99724,229.88299 C 115.99724,233.80642 115.72461,234.38299 113.86943,234.38299 C 111.93391,234.38299 111.80165,234.75838 112.40586,238.53687 C 112.77118,240.82150 113.52518,243.40900 114.08141,244.28687 C 114.88258,245.55131 114.96491,245.41543 114.47760,243.63299 C 114.11884,242.32076 114.30734,241.38299 114.92985,241.38299 C 115.51692,241.38299 115.99724,242.50799 115.99724,243.88299 C 115.99724,245.25799 115.54724,246.38299 114.99724,246.38299 C 114.44724,246.38299 113.99724,246.85955 113.99724,247.44201 C 113.99724,248.02447 114.44724,248.22291 114.99724,247.88299 C 115.54724,247.54307 115.99724,247.74151 115.99724,248.32397 C 115.99724,248.90643 115.49997,249.38299 114.89220,249.38299 C 114.15917,249.38299 114.00104,250.81372 114.42249,253.63299 C 114.77191,255.97049 115.31658,263.17049 115.63285,269.63299 L 116.20789,281.38299 L 75.602568,281.38299 L 34.997238,281.38299 L 34.926948,278.63299 C 34.855748,275.84715 33.196968,270.88413 33.067528,273.06963 C 33.028868,273.72228 31.534738,274.39728 29.747238,274.56963 C 26.775318,274.85618 26.509858,275.16107 26.644688,278.13299 C 26.781728,281.15368 26.566218,281.38299 23.590198,281.38299 C 20.526468,281.38299 20.378188,281.19954 20.154968,277.13299 z M 72.184738,268.69988 C 71.462858,268.41101 70.600368,268.44653 70.268068,268.77882 C 69.935778,269.11111 70.526408,269.34746 71.580568,269.30404 C 72.745518,269.25606 72.982468,269.01910 72.184738,268.69988 z M 101.24724,268.72071 C 100.55974,268.44330 99.434738,268.44330 98.747238,268.72071 C 98.059738,268.99812 98.622238,269.22510 99.997238,269.22510 C 101.37224,269.22510 101.93474,268.99812 101.24724,268.72071 z M 32.918288,262.13299 C 32.874868,259.24549 32.612368,257.44549 32.334958,258.13299 C 32.057548,258.82049 30.293068,259.38299 28.413908,259.38299 C 25.284278,259.38299 24.997238,259.63502 24.997238,262.38299 C 24.997238,265.14489 25.275018,265.38299 28.497238,265.38299 C 30.422238,265.38299 31.997238,265.83299 31.997238,266.38299 C 31.997238,266.93299 32.222238,267.38299 32.497238,267.38299 C 32.772238,267.38299 32.961708,265.02049 32.918288,262.13299 z M 51.601408,262.65382 C 51.269108,262.32153 51.032768,262.91216 51.076188,263.96632 C 51.124168,265.13127 51.361128,265.36822 51.680348,264.57049 C 51.969218,263.84861 51.933698,262.98611 51.601408,262.65382 z M 31.659518,253.13299 C 31.382108,252.44549 31.155128,253.00799 31.155128,254.38299 C 31.155128,255.75799 31.382108,256.32049 31.659518,255.63299 C 31.936928,254.94549 31.936928,253.82049 31.659518,253.13299 z M 50.686568,249.63299 C 50.435038,248.67049 50.229238,249.45799 50.229238,251.38299 C 50.229238,253.30799 50.435038,254.09549 50.686568,253.13299 C 50.938088,252.17049 50.938088,250.59549 50.686568,249.63299 z M 55.184738,253.69988 C 54.462858,253.41101 53.600368,253.44653 53.268068,253.77882 C 52.935778,254.11111 53.526408,254.34746 54.580568,254.30404 C 55.745518,254.25606 55.982468,254.01910 55.184738,253.69988 z M 57.997238,252.38299 C 57.408538,251.28299 56.701868,250.38299 56.426868,250.38299 C 56.151868,250.38299 56.408538,251.28299 56.997238,252.38299 C 57.585938,253.48299 58.292608,254.38299 58.567608,254.38299 C 58.842608,254.38299 58.585938,253.48299 57.997238,252.38299 z M 84.342318,251.83986 C 84.016628,250.99114 83.535688,250.51120 83.273568,250.77333 C 83.011438,251.03546 83.093588,251.72987 83.456118,252.31646 C 84.442168,253.91192 85.018498,253.60197 84.342318,251.83986 z M 86.601408,248.65382 C 86.269108,248.32153 86.032768,248.91216 86.076188,249.96632 C 86.124168,251.13127 86.361128,251.36822 86.680348,250.57049 C 86.969218,249.84861 86.933698,248.98611 86.601408,248.65382 z M 31.434778,249.21707 C 31.584568,249.03333 31.382538,246.63299 30.985798,243.88299 C 30.589068,241.13299 30.204338,239.87510 30.130848,241.08768 C 30.028538,242.77591 29.177348,243.44618 26.497238,243.94897 C 23.414698,244.52726 22.997238,244.96582 22.997238,247.62595 C 22.997238,250.58266 23.083298,250.63479 27.079828,250.09874 C 29.325248,249.79756 31.284978,249.40081 31.434778,249.21707 z M 75.997238,247.88299 C 75.312548,247.05799 74.019948,246.38962 73.124798,246.39773 C 72.030198,246.40765 72.315888,246.86673 73.997238,247.79968 C 77.307058,249.63625 77.457518,249.64252 75.997238,247.88299 z M 29.575738,229.72695 C 29.187088,228.71417 27.852118,228.35735 25.255278,228.57215 C 22.205528,228.82440 21.435648,229.31743 21.170478,231.18803 C 20.701278,234.49779 22.463828,236.11489 25.978258,235.59908 C 28.033148,235.29749 29.048348,235.59142 29.157278,236.51949 C 29.245298,237.26942 29.501998,236.37765 29.727738,234.53779 C 29.953468,232.69794 29.885068,230.53306 29.575738,229.72695 z M 53.184738,232.69988 C 52.462858,232.41101 51.600368,232.44653 51.268068,232.77882 C 50.935778,233.11111 51.526408,233.34746 52.580568,233.30404 C 53.745518,233.25606 53.982468,233.01910 53.184738,232.69988 z M 105.60141,229.65382 C 105.26911,229.32153 105.03277,229.91216 105.07619,230.96632 C 105.12417,232.13127 105.36113,232.36822 105.68035,231.57049 C 105.96922,230.84861 105.93370,229.98611 105.60141,229.65382 z M 90.184738,228.69988 C 89.462858,228.41101 88.600368,228.44653 88.268068,228.77882 C 87.935778,229.11111 88.526408,229.34746 89.580568,229.30404 C 90.745518,229.25606 90.982468,229.01910 90.184738,228.69988 z M 28.653178,221.11396 C 28.379248,220.43693 28.171808,221.23299 28.192188,222.88299 C 28.212568,224.53299 28.436688,225.08693 28.690228,224.11396 C 28.943768,223.14099 28.927098,221.79099 28.653178,221.11396 z M 28.328598,216.13299 C 27.530128,211.93826 27.665388,212.03506 23.654058,212.78759 C 21.612178,213.17065 20.036038,214.13245 19.770178,215.15763 C 18.933118,218.38547 20.062848,219.38299 24.555568,219.38299 L 28.947238,219.38299 L 28.328598,216.13299 z M 73.184738,212.69988 C 72.462858,212.41101 71.600368,212.44653 71.268068,212.77882 C 70.935778,213.11112 71.526408,213.34746 72.580568,213.30404 C 73.745518,213.25606 73.982468,213.01910 73.184738,212.69988 z M 70.184738,207.69988 C 69.462858,207.41101 68.600368,207.44653 68.268068,207.77882 C 67.935778,208.11112 68.526408,208.34746 69.580568,208.30404 C 70.745518,208.25606 70.982468,208.01910 70.184738,207.69988 z M 26.463998,199.67831 C 25.901468,194.75183 25.513508,193.57054 25.053358,195.38299 C 24.567018,197.29857 23.668088,197.95624 21.207938,198.19635 C 18.662238,198.44480 18.000408,198.96260 18.012548,200.69635 C 18.037558,204.26697 19.399058,205.57123 22.332778,204.83491 C 24.288368,204.34409 25.143698,204.60109 25.611458,205.82005 C 26.853858,209.05768 27.227578,206.36538 26.463998,199.67831 z M 45.601408,204.65382 C 45.269108,204.32153 45.032768,204.91216 45.076188,205.96632 C 45.124168,207.13127 45.361128,207.36822 45.680348,206.57049 C 45.969218,205.84861 45.933698,204.98612 45.601408,204.65382 z M 80.601408,200.65382 C 80.269108,200.32153 80.032768,200.91216 80.076188,201.96632 C 80.124168,203.13127 80.361128,203.36822 80.680348,202.57049 C 80.969218,201.84861 80.933698,200.98612 80.601408,200.65382 z M 104.60141,191.65382 C 104.26911,191.32153 104.03277,191.91216 104.07619,192.96632 C 104.12417,194.13127 104.36113,194.36822 104.68035,193.57049 C 104.96922,192.84861 104.93370,191.98612 104.60141,191.65382 z M 101.60141,190.65382 C 101.26911,190.32153 101.03277,190.91216 101.07619,191.96632 C 101.12417,193.13127 101.36113,193.36822 101.68035,192.57049 C 101.96922,191.84861 101.93370,190.98612 101.60141,190.65382 z M 60.247238,191.72071 C 59.559738,191.44330 58.434738,191.44330 57.747238,191.72071 C 57.059738,191.99812 57.622238,192.22510 58.997238,192.22510 C 60.372238,192.22510 60.934738,191.99812 60.247238,191.72071 z M 24.997238,185.88299 C 24.997238,182.47632 24.892378,182.38299 21.064628,182.38299 C 18.109608,182.38299 16.985328,182.84514 16.541948,184.24211 C 15.445778,187.69586 16.943018,189.38299 21.104228,189.38299 C 24.886718,189.38299 24.997238,189.28363 24.997238,185.88299 z M 64.601408,184.65382 C 64.269108,184.32153 64.032768,184.91216 64.076188,185.96632 C 64.124168,187.13127 64.361128,187.36822 64.680348,186.57049 C 64.969218,185.84861 64.933698,184.98612 64.601408,184.65382 z M 23.601408,176.65382 C 23.269108,176.32153 23.032768,176.91216 23.076188,177.96632 C 23.124168,179.13127 23.361128,179.36822 23.680348,178.57049 C 23.969218,177.84861 23.933698,176.98612 23.601408,176.65382 z M 22.180568,173.13299 C 23.424508,172.13980 23.593948,170.85575 23.005308,166.88299 C 22.587918,164.06600 22.206128,163.08364 22.130848,164.63299 C 22.011778,167.08373 21.616358,167.38299 18.497238,167.38299 C 15.320768,167.38299 14.997238,167.64489 14.997238,170.21632 C 14.997238,171.77466 15.297238,173.34966 15.663908,173.71632 C 16.756678,174.80910 20.501098,174.47392 22.180568,173.13299 z M 99.601408,171.65382 C 99.269108,171.32153 99.032768,171.91216 99.076188,172.96632 C 99.124168,174.13127 99.361128,174.36822 99.680348,173.57049 C 99.969218,172.84861 99.933698,171.98612 99.601408,171.65382 z M 57.184738,170.69988 C 56.462858,170.41101 55.600368,170.44653 55.268068,170.77882 C 54.935778,171.11112 55.526408,171.34746 56.580568,171.30404 C 57.745518,171.25606 57.982468,171.01910 57.184738,170.69988 z M 49.184738,168.69988 C 48.462858,168.41101 47.600368,168.44653 47.268068,168.77882 C 46.935778,169.11112 47.526408,169.34746 48.580568,169.30404 C 49.745518,169.25606 49.982468,169.01910 49.184738,168.69988 z M 110.02087,165.38299 C 113.14698,165.38299 115.01510,163.16728 114.27503,160.33727 C 113.78074,158.44709 106.31627,157.05777 105.31959,158.67043 C 105.02911,159.14044 105.13792,161.63054 105.56139,164.20399 C 105.98486,166.77744 106.51416,168.09549 106.73761,167.13299 C 107.00854,165.96598 108.10233,165.38299 110.02087,165.38299 z M 21.569928,153.81657 C 21.243738,152.51693 20.418938,151.62511 19.737048,151.83476 C 19.055148,152.04441 17.231358,152.49422 15.684178,152.83435 C 13.330388,153.35179 12.922238,153.89602 13.184178,156.16787 C 13.454808,158.51499 14.039388,158.95076 17.497238,159.38299 C 21.863598,159.92879 22.787168,158.66648 21.569928,153.81657 z M 52.184738,153.69988 C 51.462858,153.41101 50.600368,153.44653 50.268068,153.77882 C 49.935778,154.11112 50.526408,154.34746 51.580568,154.30404 C 52.745518,154.25606 52.982468,154.01910 52.184738,153.69988 z M 46.184738,151.69988 C 45.462858,151.41101 44.600368,151.44653 44.268068,151.77882 C 43.935778,152.11112 44.526408,152.34746 45.580568,152.30404 C 46.745518,152.25606 46.982468,152.01910 46.184738,151.69988 z M 70.184738,151.69988 C 69.462858,151.41101 68.600368,151.44653 68.268068,151.77882 C 67.935778,152.11112 68.526408,152.34746 69.580568,152.30404 C 70.745518,152.25606 70.982468,152.01910 70.184738,151.69988 z M 53.728208,150.69000 C 52.755238,150.43646 51.405238,150.45313 50.728208,150.72705 C 50.051178,151.00098 50.847238,151.20842 52.497238,151.18804 C 54.147238,151.16766 54.701178,150.94354 53.728208,150.69000 z M 112.20340,147.11259 C 112.01708,146.01583 112.56590,145.37002 113.70340,145.34755 C 116.95789,145.28327 110.79972,142.45723 107.32056,142.41843 C 105.15558,142.39428 103.99824,141.82566 103.68657,140.63299 C 103.43504,139.67049 103.17704,140.75869 103.11324,143.05120 C 102.93460,149.47030 103.44101,150.09476 108.28230,149.42516 C 111.55464,148.97256 112.43153,148.45539 112.20340,147.11259 z M 40.276618,147.34333 C 39.983258,146.22151 39.519788,145.52710 39.246698,145.80020 C 38.705698,146.34119 39.661288,149.38299 40.372238,149.38299 C 40.613008,149.38299 40.569978,148.46514 40.276618,147.34333 z M 72.184738,148.69988 C 71.462858,148.41101 70.600368,148.44653 70.268068,148.77882 C 69.935778,149.11112 70.526408,149.34746 71.580568,149.30404 C 72.745518,149.25606 72.982468,149.01910 72.184738,148.69988 z M 55.728208,147.69000 C 54.755238,147.43646 53.405238,147.45313 52.728208,147.72705 C 52.051178,148.00098 52.847238,148.20842 54.497238,148.18804 C 56.147238,148.16766 56.701178,147.94354 55.728208,147.69000 z M 20.500708,138.55754 C 20.091008,135.82549 19.520288,134.53667 19.054158,135.29089 C 18.630728,135.97602 17.657198,136.43105 16.890758,136.30207 C 14.051328,135.82422 11.997238,137.58212 11.997238,140.48998 C 11.997238,143.19849 12.252328,143.38299 15.997238,143.38299 C 19.438368,143.38299 20.016268,143.69735 20.133418,145.63299 C 20.264748,147.80278 20.285788,147.79719 20.723488,145.47643 C 20.973128,144.15283 20.872868,141.03932 20.500708,138.55754 z M 63.184738,146.69988 C 62.462858,146.41101 61.600368,146.44653 61.268068,146.77882 C 60.935778,147.11112 61.526408,147.34746 62.580568,147.30404 C 63.745518,147.25606 63.982468,147.01910 63.184738,146.69988 z M 92.247238,146.72071 C 91.559738,146.44330 90.434738,146.44330 89.747238,146.72071 C 89.059738,146.99812 89.622238,147.22510 90.997238,147.22510 C 92.372238,147.22510 92.934738,146.99812 92.247238,146.72071 z M 93.997238,143.32397 C 93.997238,142.74151 93.547238,142.54307 92.997238,142.88299 C 92.447238,143.22291 91.997238,143.69947 91.997238,143.94201 C 91.997238,144.18455 92.447238,144.38299 92.997238,144.38299 C 93.547238,144.38299 93.997238,143.90643 93.997238,143.32397 z M 103.72160,136.43693 C 103.29523,134.80650 103.80341,134.44158 106.85497,134.18693 C 110.16773,133.91049 110.49724,133.61158 110.49724,130.88299 C 110.49724,128.10922 110.17674,127.84021 106.24724,127.31576 L 101.99724,126.74853 L 101.99724,130.98397 C 101.99724,135.18646 102.74188,138.38299 103.72086,138.38299 C 104.00116,138.38299 104.00150,137.50726 103.72160,136.43693 z M 41.997238,136.32397 C 41.997238,135.74151 41.547238,135.54307 40.997238,135.88299 C 40.447238,136.22291 39.997238,136.69947 39.997238,136.94201 C 39.997238,137.18455 40.447238,137.38299 40.997238,137.38299 C 41.547238,137.38299 41.997238,136.90643 41.997238,136.32397 z M 46.184738,135.69988 C 45.462858,135.41101 44.600368,135.44653 44.268068,135.77882 C 43.935778,136.11112 44.526408,136.34746 45.580568,136.30404 C 46.745518,136.25606 46.982468,136.01910 46.184738,135.69988 z M 38.686568,130.63299 C 38.435038,129.67049 38.229238,130.45799 38.229238,132.38299 C 38.229238,134.30799 38.435038,135.09549 38.686568,134.13299 C 38.938088,133.17049 38.938088,131.59549 38.686568,130.63299 z M 56.184738,134.69988 C 55.462858,134.41101 54.600368,134.44653 54.268068,134.77882 C 53.935778,135.11112 54.526408,135.34746 55.580568,135.30404 C 56.745518,135.25606 56.982468,135.01910 56.184738,134.69988 z M 62.997238,131.15731 C 62.997238,128.60437 62.093488,129.28694 61.518148,132.27439 C 61.287098,133.47418 61.523578,134.17573 62.049508,133.85068 C 62.570758,133.52853 62.997238,132.31651 62.997238,131.15731 z M 53.653178,128.11396 C 53.379248,127.43693 53.171808,128.23299 53.192188,129.88299 C 53.212568,131.53299 53.436688,132.08693 53.690228,131.11396 C 53.943768,130.14099 53.927098,128.79099 53.653178,128.11396 z M 43.653178,127.11396 C 43.379248,126.43693 43.171808,127.23299 43.192188,128.88299 C 43.212568,130.53299 43.436688,131.08693 43.690228,130.11396 C 43.943768,129.14099 43.927098,127.79099 43.653178,127.11396 z M 67.653178,126.11396 C 67.379248,125.43693 67.171808,126.23299 67.192188,127.88299 C 67.212568,129.53299 67.436688,130.08693 67.690228,129.11396 C 67.943768,128.14099 67.927098,126.79099 67.653178,126.11396 z M 18.981928,124.13299 C 18.973508,121.79549 18.636008,120.36081 18.231928,120.94480 C 17.827848,121.52880 16.147238,121.97880 14.497238,121.94480 C 11.328098,121.87951 9.9736485,123.57676 10.768688,126.61702 C 11.110088,127.92253 12.243048,128.38299 15.113868,128.38299 L 18.997238,128.38299 L 18.981928,124.13299 z M 37.684318,122.62133 C 37.434028,121.66524 37.238318,122.68299 37.249418,124.88299 C 37.260518,127.08299 37.465308,127.86524 37.704498,126.62133 C 37.943688,125.37742 37.934608,123.57742 37.684318,122.62133 z M 58.659518,124.13299 C 58.382108,123.44549 58.155128,124.00799 58.155128,125.38299 C 58.155128,126.75799 58.382108,127.32049 58.659518,126.63299 C 58.936928,125.94549 58.936928,124.82049 58.659518,124.13299 z M 61.601408,122.65382 C 61.269108,122.32153 61.032768,122.91216 61.076188,123.96632 C 61.124168,125.13127 61.361128,125.36822 61.680348,124.57049 C 61.969218,123.84861 61.933698,122.98612 61.601408,122.65382 z M 76.659518,122.13299 C 76.382108,121.44549 76.155128,122.00799 76.155128,123.38299 C 76.155128,124.75799 76.382108,125.32049 76.659518,124.63299 C 76.936928,123.94549 76.936928,122.82049 76.659518,122.13299 z M 104.51535,119.63120 C 108.25423,120.34594 109.44038,118.92828 109.11572,114.13299 C 109.02860,112.84613 108.13713,112.38704 105.74724,112.39830 C 100.49323,112.42306 99.721228,113.41754 100.62798,118.99286 C 101.15433,122.22918 101.54834,123.08798 101.79302,121.53223 C 102.08595,119.66979 102.65145,119.27490 104.51535,119.63120 z M 69.523698,120.57612 C 69.215808,120.26823 68.408908,120.57548 67.730568,121.25890 C 66.750308,122.24652 66.865168,122.36138 68.290368,121.81870 C 69.276588,121.44317 69.831588,120.88401 69.523698,120.57612 z M 83.997238,119.65410 C 83.172238,119.34005 82.166628,118.58808 81.762548,117.98305 C 81.309378,117.30451 81.021998,117.55356 81.012548,118.63299 C 81.002268,119.80871 81.735598,120.35708 83.247238,120.30404 C 84.750678,120.25129 84.999528,120.03564 83.997238,119.65410 z M 72.184738,118.69988 C 71.462858,118.41101 70.600368,118.44653 70.268068,118.77882 C 69.935778,119.11112 70.526408,119.34746 71.580568,119.30404 C 72.745518,119.25606 72.982468,119.01910 72.184738,118.69988 z M 76.301928,115.32584 C 76.741488,113.64498 76.581918,113.48278 75.429578,114.43915 C 74.653898,115.08290 74.265858,116.00862 74.567268,116.49630 C 75.383148,117.81643 75.707938,117.59728 76.301928,115.32584 z M 17.147768,106.88299 C 16.654128,103.03299 16.193308,101.31698 16.123738,103.06963 C 16.011278,105.90250 15.636438,106.29106 12.747238,106.56963 C 9.8724285,106.84681 9.4972385,107.22932 9.4972385,109.88299 C 9.4972385,112.62781 9.8162085,112.90939 13.247238,113.19336 C 15.919508,113.41452 17.030578,113.98931 17.113238,115.19336 C 17.203988,116.51516 17.318068,116.55644 17.637278,115.38299 C 17.861698,114.55799 17.641418,110.73299 17.147768,106.88299 z M 36.601408,111.65382 C 36.269108,111.32153 36.032768,111.91216 36.076188,112.96632 C 36.124168,114.13127 36.361128,114.36822 36.680348,113.57049 C 36.969218,112.84861 36.933698,111.98612 36.601408,111.65382 z M 93.601408,110.65382 C 93.269108,110.32153 93.032768,110.91216 93.076188,111.96632 C 93.124168,113.13127 93.361128,113.36822 93.680348,112.57049 C 93.969218,111.84861 93.933698,110.98612 93.601408,110.65382 z M 59.184738,108.69988 C 58.462858,108.41101 57.600368,108.44653 57.268068,108.77882 C 56.935778,109.11112 57.526408,109.34746 58.580568,109.30404 C 59.745518,109.25606 59.982468,109.01910 59.184738,108.69988 z M 105.09491,103.38299 C 107.73915,103.38299 108.00643,103.08662 107.80042,100.38299 C 107.67469,98.732991 107.33004,97.350441 107.03453,97.310661 C 101.90974,96.620721 99.049228,97.071401 98.641448,98.632991 C 97.895598,101.48928 99.092948,104.56024 100.71045,103.93955 C 101.50815,103.63344 103.48116,103.38299 105.09491,103.38299 z M 15.997238,95.382991 C 15.997238,91.397171 15.983348,91.382991 12.080568,91.382991 C 7.9209885,91.382991 7.0744185,92.335911 7.8109785,96.188951 C 8.2027885,98.238591 8.7351485,98.515661 11.631728,98.177501 C 13.482758,97.961401 14.997238,98.144231 14.997238,98.583791 C 14.997238,99.023351 15.222238,99.382991 15.497238,99.382991 C 15.772238,99.382991 15.997238,97.582991 15.997238,95.382991 z M 103.93150,88.382991 C 105.56010,88.382991 105.99724,87.748151 105.99724,85.382991 C 105.99724,82.805651 105.60980,82.366301 103.24724,82.264511 C 101.73474,82.199341 99.965838,82.211931 99.316358,82.292471 C 98.666878,82.373021 97.946798,81.188831 97.716188,79.660951 C 97.438198,77.819121 97.251008,78.399421 97.160728,81.382991 C 96.955068,88.179061 97.812338,90.552311 100.04188,89.359101 C 101.04501,88.822241 102.79534,88.382991 103.93150,88.382991 z M 56.184738,88.699881 C 55.462858,88.411011 54.600368,88.446531 54.268068,88.778821 C 53.935778,89.111121 54.526408,89.347461 55.580568,89.304041 C 56.745518,89.256061 56.982468,89.019101 56.184738,88.699881 z M 75.184738,86.699881 C 74.462858,86.411011 73.600368,86.446531 73.268068,86.778821 C 72.935778,87.111121 73.526408,87.347461 74.580568,87.304041 C 75.745518,87.256061 75.982468,87.019101 75.184738,86.699881 z M 59.184738,85.699881 C 58.462858,85.411011 57.600368,85.446531 57.268068,85.778821 C 56.935778,86.111121 57.526408,86.347461 58.580568,86.304041 C 59.745518,86.256061 59.982468,86.019101 59.184738,85.699881 z M 14.493128,78.678721 C 14.082838,75.491071 13.465908,73.557991 13.122188,74.382991 C 12.778468,75.207991 11.934738,75.927991 11.247238,75.982991 C 10.559738,76.037991 9.0687285,76.150491 7.9338785,76.232991 C 6.2317885,76.356731 5.9253885,76.952031 6.1838785,79.632991 C 6.4822585,82.727651 6.6764785,82.868971 10.247238,82.589711 C 13.232878,82.356201 13.997238,82.644961 13.997238,84.006371 C 13.997238,84.946851 14.276658,85.436901 14.618178,85.095391 C 14.959688,84.753871 14.903418,81.866371 14.493128,78.678721 z M 65.184738,84.699881 C 64.462858,84.411011 63.600368,84.446531 63.268068,84.778821 C 62.935778,85.111121 63.526408,85.347461 64.580568,85.304041 C 65.745518,85.256061 65.982468,85.019101 65.184738,84.699881 z M 100.04693,73.382991 C 101.11960,73.382991 101.99724,73.832991 101.99724,74.382991 C 101.99724,76.192381 103.75282,75.425661 104.28699,73.382991 C 105.23780,69.747061 103.97445,67.382991 101.08061,67.382991 C 99.604758,67.382991 97.857238,66.842991 97.197238,66.182991 C 96.263908,65.249661 96.003998,66.305211 96.027648,70.932991 C 96.050798,75.462601 96.301378,76.465231 97.077338,75.132991 C 97.637938,74.170491 98.974258,73.382991 100.04693,73.382991 z M 12.997238,63.928751 C 12.997238,60.523065 12.944918,60.481214 9.2748985,60.951091 C 4.7215585,61.534061 3.5970485,62.546731 4.4652885,65.282331 C 4.9937685,66.947411 5.9474585,67.382991 9.0646285,67.382991 C 12.882448,67.382991 12.997238,67.282171 12.997238,63.928751 z M 42.184738,66.699881 C 41.462868,66.411011 40.600368,66.446531 40.268068,66.778821 C 39.935778,67.111111 40.526408,67.347461 41.580568,67.304041 C 42.745518,67.256061 42.982468,67.019101 42.184738,66.699881 z M 37.659518,63.132991 C 37.382108,62.445491 37.155128,63.007991 37.155128,64.382991 C 37.155128,65.757991 37.382108,66.320491 37.659518,65.632991 C 37.936928,64.945491 37.936928,63.820491 37.659518,63.132991 z M 47.997238,64.382991 C 47.997238,63.832991 47.520678,63.382991 46.938218,63.382991 C 46.355758,63.382991 46.157318,63.832991 46.497238,64.382991 C 46.837158,64.932991 47.313718,65.382991 47.556258,65.382991 C 47.798798,65.382991 47.997238,64.932991 47.997238,64.382991 z M 78.184738,63.699881 C 77.462858,63.411011 76.600368,63.446531 76.268068,63.778821 C 75.935778,64.111111 76.526408,64.347461 77.580568,64.304041 C 78.745518,64.256061 78.982468,64.019101 78.184738,63.699881 z M 99.307988,58.191819 C 102.10932,57.920555 102.53580,57.481652 102.81429,54.583443 L 103.13135,51.283896 L 98.564288,51.520305 C 93.587378,51.777930 93.633598,51.687774 94.733168,58.993420 C 95.266348,62.535901 95.558588,63.141571 95.793918,61.191821 C 96.060708,58.981363 96.688418,58.445482 99.307988,58.191819 z M 11.601408,54.653824 C 11.269118,54.321533 11.032768,54.912158 11.076188,55.966324 C 11.124168,57.131267 11.361128,57.368224 11.680348,56.570491 C 11.969228,55.848616 11.933698,54.986116 11.601408,54.653824 z M 11.552198,49.665615 C 11.246968,48.870206 10.929818,46.343720 10.847408,44.051204 C 10.746688,41.249378 10.564198,40.751477 10.290698,42.532339 C 9.9669585,44.640301 9.1801985,45.313688 6.4405285,45.827652 C 2.9866985,46.475594 2.1850285,48.102835 3.5575485,51.679565 C 4.0127785,52.865867 4.8670485,52.949550 8.1125085,52.125764 C 10.960398,51.402892 11.947838,50.696650 11.552198,49.665615 z M 100.60735,42.199650 C 101.21792,41.743503 101.50296,40.248149 101.24078,38.876641 C 100.81899,36.670195 100.25923,36.382991 96.380658,36.382991 C 91.832868,36.382991 91.475918,36.835625 92.629318,41.139852 C 93.109408,42.931427 93.879708,43.358809 96.365668,43.212861 C 98.088028,43.111743 99.996788,42.655798 100.60735,42.199650 z M 9.6031985,31.798518 C 9.3044485,31.019978 7.7509885,30.382991 6.1510685,30.382991 C 3.1492485,30.382991 1.2349785,31.946879 1.5608885,34.132991 C 1.6633785,34.820491 1.8034885,35.805827 1.8722385,36.322626 C 1.9409885,36.839425 3.6847385,37.401925 5.7472385,37.572626 C 9.0254185,37.843942 9.5380785,37.589273 9.8218085,35.548518 C 10.000328,34.264558 9.9019485,32.577058 9.6031985,31.798518 z M 43.184738,28.699877 C 42.462868,28.411006 41.600368,28.446533 41.268068,28.778824 C 40.935778,29.111116 41.526408,29.347465 42.580568,29.304044 C 43.745518,29.256060 43.982468,29.019103 43.184738,28.699877 z M 97.197238,27.382991 C 99.641678,27.382991 99.997238,27.002039 99.997238,24.382991 C 99.997238,21.558101 99.767638,21.382991 96.063658,21.382991 C 92.540138,21.382991 92.086658,21.096314 91.713488,18.632991 C 91.442388,16.843368 91.249348,17.454516 91.160728,20.382991 C 90.980138,26.350339 91.923618,29.856615 93.331148,28.449078 C 93.917498,27.862730 95.657238,27.382991 97.197238,27.382991 z M 27.601408,23.653824 C 27.269108,23.321533 27.032768,23.912158 27.076188,24.966324 C 27.124168,26.131267 27.361128,26.368224 27.680348,25.570491 C 27.969218,24.848616 27.933698,23.986116 27.601408,23.653824 z M 84.997238,24.823974 C 84.997238,24.581433 84.547238,24.382991 83.997238,24.382991 C 83.447238,24.382991 82.997238,24.859549 82.997238,25.442008 C 82.997238,26.024467 83.447238,26.222910 83.997238,25.882991 C 84.547238,25.543072 84.997238,25.066515 84.997238,24.823974 z M 8.5559085,18.925646 C 7.9102785,14.620267 7.7292485,14.407440 5.1854385,14.962973 C 0.16798845,16.058712 -0.14294155,16.317403 0.18026845,19.127305 C 0.46878845,21.635636 0.83384845,21.863235 4.2472385,21.662893 C 7.1428185,21.492943 7.9972385,21.815725 7.9972385,23.079559 C 7.9972385,23.979780 8.2764485,24.437112 8.6177085,24.095853 C 8.9589685,23.754594 8.9311585,21.428001 8.5559085,18.925646 z M 94.011548,12.382991 C 97.004048,12.382991 98.311588,11.152922 98.534438,8.1280958 C 98.665608,6.3475898 94.559068,4.4878278 93.292678,5.7542188 C 92.956398,6.0904998 92.077348,5.8644428 91.339248,5.2518698 C 90.240638,4.3401018 90.018278,5.2031678 90.113238,10.010546 C 90.177038,13.240391 90.435038,15.095491 90.686568,14.132991 C 90.988008,12.979478 92.121328,12.382991 94.011548,12.382991 z M 26.601408,9.6538238 C 26.269108,9.3215328 26.032768,9.9121578 26.076188,10.966324 C 26.124168,12.131267 26.361128,12.368224 26.680348,11.570491 C 26.969218,10.848616 26.933698,9.9861158 26.601408,9.6538238 z M 83.601408,8.6538238 C 83.269108,8.3215328 83.032768,8.9121578 83.076188,9.9663238 C 83.124168,11.131267 83.361128,11.368224 83.680348,10.570491 C 83.969218,9.8486158 83.933698,8.9861158 83.601408,8.6538238 z M 6.6212585,1.9306778 C 6.2876085,-0.84555020 5.9514685,-4.0170092 5.8742885,-5.1170092 C 5.7971085,-6.2170092 5.4556985,-5.5420092 5.1155985,-3.6170092 C 4.6266285,-0.84940020 3.9740985,-0.046976201 1.9972385,0.21766680 C -1.4823715,0.68348380 -2.3619815,1.8156168 -1.6007515,4.8485858 C -1.0136415,7.1878238 -0.51839155,7.4354308 3.1413585,7.2194888 L 7.2278985,6.9783658 L 6.6212585,1.9306778 z M 93.309088,-2.8082642 C 96.100438,-3.0785822 96.536338,-3.5228162 96.811378,-6.3775112 L 97.125518,-9.6380132 L 92.561378,-9.4653772 C 87.537718,-9.2753592 87.200348,-8.5746152 88.722638,-1.4920092 C 89.291338,1.1538668 89.520728,1.4095998 89.784498,-0.30826420 C 90.036748,-1.9511312 90.918818,-2.5767852 93.309088,-2.8082642 z M 81.601408,-11.346176 C 81.269108,-11.678467 81.032768,-11.087842 81.076188,-10.033676 C 81.124168,-8.8687332 81.361128,-8.6317762 81.680348,-9.4295092 C 81.969218,-10.151384 81.933698,-11.013884 81.601408,-11.346176 z M 88.659518,-13.867009 C 88.382108,-14.554509 88.155128,-13.992009 88.155128,-12.617009 C 88.155128,-11.242009 88.382108,-10.679509 88.659518,-11.367009 C 88.936928,-12.054509 88.936928,-13.179509 88.659518,-13.867009 z M 52.247238,-13.279290 C 51.559738,-13.556702 50.434738,-13.556702 49.747238,-13.279290 C 49.059738,-13.001877 49.622238,-12.774904 50.997238,-12.774904 C 52.372238,-12.774904 52.934738,-13.001877 52.247238,-13.279290 z M 94.817378,-19.264151 C 95.551438,-19.455387 95.995388,-20.608931 95.817378,-21.862538 C 95.543978,-23.787860 94.803748,-24.161508 90.747238,-24.421800 C 85.684068,-24.746686 85.215258,-24.132771 86.596368,-18.986138 C 87.107488,-17.081507 87.504178,-16.964888 90.332718,-17.887750 C 92.073208,-18.455616 94.091298,-19.074996 94.817378,-19.264151 z M 31.268068,280.77882 C 31.600368,280.44653 32.462868,280.41101 33.184738,280.69988 C 33.982468,281.01910 33.745518,281.25606 32.580568,281.30404 C 31.526408,281.34746 30.935778,281.11111 31.268068,280.77882 z "
     id="path1628" />
  <path
     style="fill:#8c8c8c;fill-opacity:1.0000000"
     d="M 21.597588,279.63299 C 21.303658,278.67049 20.378948,271.58299 19.542688,263.88299 C 18.706418,256.18299 17.579978,245.83299 17.039498,240.88299 C 16.499008,235.93299 15.616418,227.60799 15.078198,222.38299 C 13.704088,209.04337 12.064148,193.36246 10.999498,183.38299 C 10.018818,174.19067 8.8035085,161.24093 6.4947685,135.38299 C 5.6845085,126.30799 4.7322085,117.19549 4.3785585,115.13299 C 3.9668985,112.73218 4.1211785,111.38299 4.8073785,111.38299 C 6.5899285,111.38299 6.7434585,112.27862 7.8930485,129.38299 C 8.5029785,138.45799 9.4326685,148.80799 9.9590285,152.38299 C 10.485398,155.95799 11.422948,164.28299 12.042478,170.88299 C 12.662008,177.48299 13.352858,184.23299 13.577708,185.88299 C 14.041688,189.28779 15.740358,205.88950 16.544968,214.88299 C 16.840198,218.18299 17.328728,222.14433 17.630588,223.68597 C 18.272508,226.96438 19.028298,235.38421 19.129348,240.38299 C 19.168268,242.30799 19.553338,244.33299 19.985068,244.88299 C 20.416798,245.43299 21.281788,251.50799 21.907278,258.38299 C 22.532758,265.25799 23.291258,273.24549 23.592838,276.13299 C 23.928418,279.34612 23.751408,281.38299 23.136578,281.38299 C 22.584068,281.38299 21.891528,280.59549 21.597588,279.63299 z M 34.546808,273.13299 C 34.184588,268.59549 33.477448,261.50799 32.975398,257.38299 C 32.473338,253.25799 31.599398,245.38299 31.033298,239.88299 C 30.467198,234.38299 29.338698,223.80799 28.525518,216.38299 C 27.712348,208.95799 26.595888,197.93299 26.044498,191.88299 C 25.493108,185.83299 24.590558,177.05799 24.038818,172.38299 C 23.487088,167.70799 22.133428,153.98299 21.030678,141.88299 C 19.927928,129.78299 18.343708,113.35799 17.510178,105.38299 C 16.676648,97.407991 15.331558,84.132991 14.521068,75.882991 C 13.710588,67.632991 11.936758,49.857991 10.579228,36.382991 C 9.2216985,22.907991 7.8857385,9.6329908 7.6104185,6.8829908 C 7.3350985,4.1329908 6.7938985,-2.0294692 6.4077485,-6.8113652 C 5.5854685,-16.993995 3.6679285,-15.682014 22.997238,-18.161875 C 29.872238,-19.043906 38.422238,-20.184584 41.997238,-20.696715 C 52.440848,-22.192800 62.787498,-23.494262 73.407898,-24.647731 C 78.858768,-25.239744 83.782888,-25.812518 84.350388,-25.920563 C 85.756018,-26.188175 86.679348,-20.000304 89.019998,5.3737288 C 89.602988,11.693634 90.289318,17.768634 90.545168,18.873729 C 90.801028,19.978823 91.486818,26.732991 92.069148,33.882991 C 93.636058,53.122026 93.618778,52.925324 94.871158,65.774581 C 95.508638,72.314951 96.248128,78.614951 96.514478,79.774581 C 97.040148,82.063231 99.047528,103.09774 99.435518,110.38299 C 99.567338,112.85799 100.01547,117.39825 100.43138,120.47245 C 100.84728,123.54665 101.30184,127.59665 101.44150,129.47245 C 102.51198,143.85028 104.29129,160.73802 105.18637,165.01562 C 105.77706,167.83856 106.01460,170.54588 105.71424,171.03188 C 105.41387,171.51788 105.59538,174.15820 106.11758,176.89926 C 106.63979,179.64031 107.21650,184.58299 107.39917,187.88299 C 107.58184,191.18299 108.25258,198.83299 108.88970,204.88299 C 110.54992,220.64812 110.99559,225.18126 111.49504,231.38299 C 111.73866,234.40799 112.40607,239.58299 112.97818,242.88299 C 113.55029,246.18299 113.97037,249.78299 113.91170,250.88299 C 113.85303,251.98299 114.28666,257.38299 114.87533,262.88299 C 115.46400,268.38299 115.95725,274.79549 115.97144,277.13299 L 115.99724,281.38299 L 75.601318,281.38299 L 35.205398,281.38299 L 34.546808,273.13299 z M 79.135498,274.41686 C 95.424648,272.54704 106.23866,270.83922 108.79099,269.73347 C 112.38978,268.17436 112.77133,267.67485 112.45405,264.93803 C 112.25925,263.25776 111.58433,256.48299 110.95424,249.88299 C 109.75182,237.28813 108.30630,227.35872 107.56762,226.62004 C 107.32710,226.37951 106.61555,226.50085 105.98641,226.88968 C 105.18485,227.38507 105.00347,230.93152 105.38034,238.73982 L 105.91817,249.88299 L 104.44593,238.95455 C 103.63620,232.94391 102.76813,227.82055 102.51690,227.56931 C 102.10089,227.15330 87.229238,228.49913 58.747238,231.53029 L 47.997238,232.67435 L 47.997238,235.98782 C 47.997238,237.81023 48.434188,242.58218 48.968228,246.59214 C 49.502278,250.60211 50.207168,257.27981 50.534668,261.43147 C 50.862158,265.58313 51.499418,269.57750 51.950798,270.30785 C 52.624918,271.39860 57.613648,271.13308 79.884358,268.82112 C 110.59858,265.63263 107.48507,267.13895 106.11016,256.13299 C 105.71509,252.97049 105.69190,250.38299 106.05862,250.38299 C 106.85040,250.38299 107.99724,258.10405 107.99724,263.43466 C 107.99724,267.92317 109.96338,267.42772 80.497238,270.36442 C 69.497238,271.46072 58.228578,272.63995 55.455778,272.98493 L 50.414328,273.61217 L 48.272688,252.76401 C 47.094778,241.29753 46.214968,231.83192 46.317548,231.72934 C 46.420138,231.62676 53.252528,230.82959 61.500648,229.95784 C 81.360138,227.85889 93.936848,226.36286 96.983108,225.73712 C 99.305818,225.26000 99.344378,225.15676 97.570648,224.16414 C 93.963038,222.14521 60.470318,225.19540 49.497238,228.54219 C 41.681868,230.92588 41.587758,231.09943 41.869328,242.60994 C 42.093548,251.77642 44.075948,268.86410 45.636498,275.08183 C 46.391628,278.09051 47.286788,278.07274 79.135498,274.41686 z M 51.422148,253.93983 C 50.709238,251.09937 51.513078,249.38299 53.556258,249.38299 C 55.317988,249.38299 55.498808,251.35131 53.747238,251.46194 C 52.859738,251.51799 52.892548,251.69809 53.860388,252.08299 C 55.011258,252.54067 55.011258,252.75959 53.860388,253.48873 C 52.803308,254.15845 52.903408,254.35580 54.306258,254.36768 C 55.301218,254.37610 55.837158,254.83299 55.497238,255.38299 C 54.357448,257.22721 52.041368,256.40698 51.422148,253.93983 z M 58.514148,252.41569 C 57.624828,250.69594 57.389928,249.38299 57.971558,249.38299 C 58.535678,249.38299 58.997238,249.83299 58.997238,250.38299 C 58.997238,252.07901 60.823618,251.48621 61.307908,249.63299 C 61.559438,248.67049 61.817438,249.31893 61.881238,251.07397 C 62.039748,255.43445 60.410858,256.08353 58.514148,252.41569 z M 64.997238,251.88299 C 64.997238,248.88566 65.320378,248.39965 67.247238,248.49899 C 68.940408,248.58628 69.064148,248.72817 67.747238,249.07232 C 65.746688,249.59511 65.364028,251.37523 67.247238,251.39830 C 68.080568,251.40851 67.997238,251.73674 66.997238,252.38299 C 65.802528,253.15507 66.006058,253.36979 67.997238,253.43796 C 70.292378,253.51655 70.333348,253.59399 68.497238,254.38299 C 65.278328,255.76620 64.997238,255.56542 64.997238,251.88299 z M 71.938238,254.38299 C 71.888948,254.10799 71.647648,252.79036 71.402028,251.45492 C 70.937868,248.93133 72.458528,247.23904 74.489888,248.01854 C 75.811588,248.52573 76.125128,254.38299 74.830568,254.38299 C 74.372238,254.38299 73.990348,253.82049 73.981928,253.13299 C 73.971718,252.29966 73.643488,252.38299 72.997238,253.38299 C 72.464078,254.20799 71.987538,254.65799 71.938238,254.38299 z M 78.350518,250.50799 C 77.340968,247.83337 77.434348,247.63299 79.690308,247.63299 C 81.403028,247.63299 81.951088,248.06087 81.556258,249.08978 C 81.248798,249.89101 80.997238,251.18476 80.997238,251.96478 C 80.997238,254.36473 79.493958,253.53730 78.350518,250.50799 z M 84.381278,251.94140 C 83.496948,249.63687 84.383008,246.93238 86.132768,246.59541 C 87.763708,246.28132 89.055568,249.70801 88.234658,252.17073 C 87.675098,253.84941 85.053578,253.69339 84.381278,251.94140 z M 86.601408,248.65382 C 86.269108,248.32153 86.032768,248.91216 86.076188,249.96632 C 86.124168,251.13127 86.361128,251.36822 86.680348,250.57049 C 86.969218,249.84861 86.933698,248.98611 86.601408,248.65382 z M 90.997238,249.38299 C 90.997238,246.36178 92.398688,245.31266 93.334958,247.63299 C 93.627578,248.35817 93.872488,248.12347 93.918288,247.07397 C 94.053708,243.97109 95.997238,246.32977 95.997238,249.59699 C 95.997238,252.65136 95.969788,252.66812 93.954208,250.84404 C 92.163528,249.22350 91.991458,249.20436 92.561188,250.68906 C 92.930818,251.65229 92.733698,252.38299 92.104228,252.38299 C 91.495378,252.38299 90.997238,251.03299 90.997238,249.38299 z M 97.997238,248.38299 C 97.997238,245.93401 98.410498,245.38580 100.24724,245.39830 C 101.48474,245.40672 102.04724,245.74422 101.49724,246.14830 C 100.00282,247.24623 100.29088,249.78948 101.99724,250.56270 C 102.98440,251.01003 102.55703,251.26645 100.74724,251.31270 C 98.342728,251.37416 97.997238,251.00609 97.997238,248.38299 z M 70.997238,240.44201 C 70.997238,239.92447 71.447238,239.22291 71.997238,238.88299 C 72.547238,238.54307 72.997238,238.96651 72.997238,239.82397 C 72.997238,240.68143 72.547238,241.38299 71.997238,241.38299 C 71.447238,241.38299 70.997238,240.95955 70.997238,240.44201 z M 83.977178,239.85882 C 83.281458,239.02053 83.001358,238.04553 83.354738,237.69216 C 83.708108,237.33878 84.004128,237.68716 84.012548,238.46632 C 84.025158,239.63279 84.199068,239.61807 84.997238,238.38299 C 85.781108,237.17003 85.969538,237.31355 85.981928,239.13299 C 85.999988,241.78644 85.674698,241.90421 83.977178,239.85882 z M 70.847488,213.88587 C 91.879138,211.44309 97.725008,210.39592 103.34555,208.06449 L 106.19387,206.88299 L 105.66621,198.88299 C 104.96085,188.18881 103.21188,172.08638 102.40767,168.88213 C 102.05066,167.45969 101.24976,166.47382 100.62790,166.69129 C 99.861228,166.95941 99.589128,170.35370 99.782668,177.23485 C 99.939658,182.81633 99.877778,187.38299 99.645168,187.38299 C 99.412548,187.38299 98.674678,182.91313 98.005438,177.44996 C 97.156858,170.52267 96.347378,167.34759 95.330398,166.95734 C 93.949828,166.42757 73.971238,168.18935 56.497238,170.38179 C 52.097238,170.93386 46.970438,171.38497 45.104348,171.38427 L 41.711448,171.38299 L 42.306988,179.13299 C 43.698878,197.24645 45.094058,209.87542 45.771298,210.49159 C 46.170568,210.85486 49.422238,210.79354 52.997238,210.35534 C 56.572238,209.91714 62.422238,209.27301 65.997238,208.92394 C 69.572238,208.57488 75.872238,207.88970 79.997238,207.40133 C 84.122238,206.91295 90.505808,206.22632 94.182958,205.87547 L 100.86868,205.23757 L 100.47514,198.06028 C 100.13219,191.80575 100.19520,191.46154 100.96529,195.38299 C 101.45133,197.85799 101.88235,201.50706 101.92312,203.49203 L 101.99724,207.10108 L 93.747238,207.66786 C 89.209738,207.97960 76.345088,209.20338 65.159128,210.38738 C 53.973168,211.57138 44.662838,212.38192 44.469498,212.18858 C 44.276158,211.99524 43.629258,207.12239 43.031948,201.36002 C 42.434638,195.59765 41.489388,186.48178 40.931388,181.10253 C 39.951718,171.65821 40.216408,168.78238 41.965808,169.86356 C 43.310568,170.69467 87.424178,165.92521 90.958478,164.56658 C 94.093308,163.36152 87.482628,162.64283 77.497238,163.10312 C 58.577068,163.97528 43.301218,166.88989 38.016628,170.63598 C 35.616768,172.33717 35.551358,172.70653 35.802958,183.13598 C 35.945548,189.04683 36.277128,195.00799 36.539788,196.38299 C 36.802458,197.75799 37.423018,202.16390 37.918808,206.17390 C 38.414608,210.18390 39.365178,214.12140 40.031188,214.92390 C 41.688718,216.92110 45.951098,216.77752 70.847488,213.88587 z M 59.731588,203.29084 C 60.005988,202.24152 60.965518,201.34856 61.863868,201.30648 C 62.762218,201.26440 64.253578,201.08379 65.177998,200.90512 C 66.347558,200.67908 66.702918,201.08254 66.346368,202.23164 C 65.899778,203.67091 66.019148,203.65824 67.275848,202.13299 C 68.068878,201.17049 69.230618,200.38299 69.857478,200.38299 C 70.484348,200.38299 71.049438,201.17049 71.113238,202.13299 C 71.223718,203.79966 71.251018,203.79966 71.686568,202.13299 C 72.311128,199.74301 73.568668,199.92134 73.568668,202.39988 C 73.568668,203.98789 72.923128,204.40864 70.532948,204.37851 C 68.863308,204.35746 65.637708,204.53339 63.364958,204.76946 C 59.691428,205.15103 59.288058,204.98688 59.731588,203.29084 z M 75.215888,201.88299 C 75.451578,200.30440 76.408168,199.81820 79.755868,199.57549 C 84.029368,199.26567 84.672058,199.77012 83.121088,202.21684 C 82.451628,203.27293 82.136738,203.18891 81.608888,201.81334 C 80.987868,200.19499 80.843528,200.20637 79.501528,201.97949 C 78.088268,203.84676 78.060238,203.84604 78.029038,201.94186 C 77.997558,200.02035 77.981668,200.02035 76.457258,201.94186 C 74.937848,203.85707 74.921268,203.85628 75.215888,201.88299 z M 53.177688,195.13299 C 53.450738,193.21038 54.152008,192.85899 57.997238,192.71805 C 63.372798,192.52101 75.497238,191.54066 75.497238,191.30304 C 75.497238,191.21069 77.072238,191.02765 78.997238,190.89630 C 80.922238,190.76495 83.916898,190.34437 85.652038,189.96169 C 88.973388,189.22917 91.052638,190.72759 89.235858,192.54437 C 88.128248,193.65198 86.078008,193.97753 74.247238,194.92437 C 67.666698,195.45102 65.991088,195.31128 65.966828,194.23381 C 65.948038,193.39917 65.521268,193.59755 64.849998,194.75297 C 63.972778,196.26286 63.596458,196.35914 62.895718,195.25297 C 62.181418,194.12539 62.022448,194.14839 61.997238,195.38299 C 61.970018,196.71632 61.858908,196.71632 60.997238,195.38299 C 60.350988,194.38299 60.022758,194.29966 60.012548,195.13299 C 60.004128,195.82049 59.322238,196.38299 58.497238,196.38299 C 57.672238,196.38299 56.997238,195.93299 56.997238,195.38299 C 56.997238,194.83299 56.209738,194.41852 55.247238,194.46194 C 54.201798,194.50910 54.000498,194.74395 54.747238,195.04527 C 56.520628,195.76085 56.298888,197.38299 54.427688,197.38299 C 53.371988,197.38299 52.962758,196.64637 53.177688,195.13299 z M 45.391748,187.79730 C 45.724768,186.92946 45.997238,185.80622 45.997238,185.30120 C 45.997238,184.79619 46.447238,184.38299 46.997238,184.38299 C 47.547238,184.38299 47.997238,185.14400 47.997238,186.07412 C 47.997238,187.60246 48.117558,187.61326 49.247238,186.18630 C 50.443958,184.67465 60.013718,182.95367 59.981928,184.25583 C 59.973508,184.60077 59.489248,185.55799 58.905798,186.38299 C 58.072478,187.56131 57.732418,187.60355 57.320108,186.57999 C 56.927128,185.60440 56.451688,185.73004 55.428038,187.07999 C 54.121858,188.80252 54.059428,188.79636 54.029038,186.94186 C 54.000808,185.21878 53.856818,185.17682 52.747238,186.56828 C 52.059738,187.43044 49.987268,188.41469 48.141748,188.75551 C 45.353998,189.27034 44.888698,189.10821 45.391748,187.79730 z M 60.012548,186.63299 C 60.055578,184.52559 62.068378,183.34743 66.303988,182.95038 C 70.182928,182.58677 71.017368,182.80302 71.113238,184.19671 C 71.217338,185.70994 71.276178,185.70340 71.686568,184.13299 C 72.211278,182.12509 77.997238,181.61269 77.997238,183.57412 C 77.997238,184.26648 78.520658,184.08657 79.247238,183.14447 C 80.450338,181.58450 83.323088,181.05194 89.320558,181.27703 C 91.442668,181.35667 92.060178,181.81763 91.806868,183.13299 C 91.391138,185.29168 88.741538,185.47167 87.817528,183.40399 C 87.253438,182.14173 87.125848,182.18068 87.067528,183.63299 C 87.013858,184.96926 86.110668,185.39151 83.247238,185.41903 C 81.184738,185.43885 76.909738,185.71694 73.747238,186.03701 C 69.273458,186.48979 67.990488,186.31533 67.966828,185.25097 C 67.948338,184.41889 67.492038,184.64911 66.802048,185.83864 C 65.676258,187.77950 65.661898,187.77950 64.902748,185.83864 C 64.242428,184.15046 64.128198,184.12233 64.067528,185.63299 C 64.000378,187.30490 59.978578,188.29672 60.012548,186.63299 z M 92.997238,182.38299 C 92.997238,181.25151 93.663908,180.38299 94.532418,180.38299 C 95.757728,180.38299 95.851548,180.78669 94.997238,182.38299 C 94.408538,183.48299 93.717708,184.38299 93.462058,184.38299 C 93.206408,184.38299 92.997238,183.48299 92.997238,182.38299 z M 62.740178,176.25798 C 63.072568,174.98691 64.020338,174.33348 65.378098,174.43926 C 66.543628,174.53007 67.722238,174.53194 67.997238,174.44340 C 68.272238,174.35487 70.356908,174.12099 72.629838,173.92366 C 76.325088,173.60285 76.708098,173.77267 76.248978,175.52835 C 75.908348,176.83089 75.022178,177.39974 73.616378,177.21826 C 72.450848,177.06780 70.915028,177.30705 70.203438,177.74993 C 69.472388,178.20492 68.276238,178.02950 67.453438,177.34664 C 66.652528,176.68194 65.997238,176.54744 65.997238,177.04774 C 65.997238,177.54804 65.147678,178.02138 64.109318,178.09959 C 62.692748,178.20630 62.350918,177.74651 62.740178,176.25798 z M 52.497238,154.44771 C 55.797238,153.94161 61.197238,153.28221 64.497238,152.98236 C 82.896778,151.31051 94.811818,149.05358 98.896878,146.46641 C 100.37777,145.52853 100.24662,141.42272 98.057108,120.17568 C 96.820838,108.17890 96.143268,105.38299 94.472168,105.38299 C 92.518668,105.38299 92.326718,106.90457 93.225168,115.26813 C 93.675088,119.45630 93.883928,123.55799 93.689268,124.38299 C 93.494608,125.20799 93.003028,123.18299 92.596878,119.88299 C 92.190718,116.58299 91.532608,112.08299 91.134408,109.88299 L 90.410408,105.88299 L 84.953818,105.97553 C 79.829388,106.06243 75.797778,106.43725 47.109718,109.49390 L 35.722198,110.70722 L 36.360208,119.29510 C 37.486068,134.44984 38.892878,149.61261 39.199458,149.89690 C 39.363238,150.04877 51.422238,148.88361 65.997238,147.30767 C 80.572238,145.73173 93.072268,144.42897 93.775088,144.41265 C 94.730718,144.39047 94.934398,142.68095 94.582848,137.63299 L 94.112748,130.88299 L 95.185958,137.07051 C 95.776228,140.47364 96.014108,143.89664 95.714598,144.67716 C 95.322938,145.69780 92.407988,146.29432 85.333628,146.80152 C 79.923618,147.18939 72.347238,147.89641 68.497238,148.37267 C 52.044198,150.40797 38.902018,151.62110 38.429118,151.14821 C 38.149368,150.86845 37.039998,142.16838 35.963858,131.81471 C 34.887718,121.46104 33.733738,112.12813 33.399458,111.07491 C 32.848248,109.33819 32.646168,109.30548 31.228208,110.72345 C 28.516218,113.43544 29.809538,141.26018 33.152958,152.13299 C 34.139718,155.34193 34.230318,155.38289 40.324788,155.37544 C 43.719638,155.37128 49.197238,154.95380 52.497238,154.44771 z M 61.997238,136.38299 C 61.997238,135.28299 62.405108,134.38299 62.903618,134.38299 C 63.402128,134.38299 63.574648,135.28299 63.286988,136.38299 C 62.999328,137.48299 62.591458,138.38299 62.380608,138.38299 C 62.169758,138.38299 61.997238,137.48299 61.997238,136.38299 z M 64.997238,136.21632 C 64.997238,135.75799 65.447238,135.38299 65.997238,135.38299 C 67.734788,135.38299 67.078538,133.63751 65.151528,133.13359 C 63.232118,132.63165 61.997238,127.24358 61.997238,119.37065 L 61.997238,115.63745 L 67.247238,115.10858 C 70.134738,114.81771 72.885528,114.94625 73.360108,115.39422 C 74.923628,116.87011 72.938418,118.38299 69.438218,118.38299 C 66.624278,118.38299 65.997238,118.76049 65.997238,120.45456 C 65.997238,122.12285 66.528968,122.46352 68.728688,122.20456 C 70.694208,121.97316 71.555998,122.37370 71.802008,123.63299 C 72.060078,124.95399 71.478138,125.38299 69.428108,125.38299 C 66.714428,125.38299 66.712798,125.38750 67.322028,131.21632 C 67.817218,135.95400 67.656148,137.04966 66.464488,137.04966 C 65.657498,137.04966 64.997238,136.67466 64.997238,136.21632 z M 68.997238,135.38299 C 68.997238,134.28299 69.419268,133.38299 69.935088,133.38299 C 70.450908,133.38299 70.805148,134.28299 70.722288,135.38299 C 70.639428,136.48299 70.217388,137.38299 69.784438,137.38299 C 69.351478,137.38299 68.997238,136.48299 68.997238,135.38299 z M 75.247238,136.72071 C 73.493288,136.01297 73.684398,133.71632 75.497238,133.71632 C 76.322238,133.71632 76.997238,134.54132 76.997238,135.54966 C 76.997238,136.55799 76.884738,137.34746 76.747238,137.30404 C 76.609738,137.26062 75.934738,136.99812 75.247238,136.72071 z M 78.456118,135.31646 C 78.093588,134.72987 78.067028,133.97987 78.397098,133.64979 C 78.727178,133.31972 78.997238,133.57466 78.997238,134.21632 C 78.997238,134.85799 79.473798,135.38299 80.056258,135.38299 C 80.638718,135.38299 80.866298,134.98014 80.561998,134.48777 C 79.929438,133.46427 82.249948,132.38299 85.079028,132.38299 C 86.435988,132.38299 86.963298,133.04132 86.881238,134.63299 C 86.793948,136.32616 86.652058,136.44990 86.307908,135.13299 C 85.785118,133.13244 84.004998,132.74978 83.981928,134.63299 C 83.970458,135.56893 83.754178,135.54786 83.121088,134.54914 C 82.440318,133.47521 82.157138,133.52392 81.667788,134.79914 C 80.968668,136.62103 79.416868,136.87098 78.456118,135.31646 z M 38.648948,128.63299 C 37.668258,118.24912 37.762118,117.38299 39.868028,117.38299 C 41.451888,117.38299 41.844608,118.45661 42.428578,124.38299 L 43.118338,131.38299 L 47.057788,131.38299 C 49.758378,131.38299 50.997238,131.82106 50.997238,132.77600 C 50.997238,134.60871 48.788378,135.38299 43.560058,135.38299 L 39.286448,135.38299 L 38.648948,128.63299 z M 87.997238,133.34549 C 87.997238,131.38126 87.557038,131.22072 83.037138,131.53648 L 78.077048,131.88299 L 77.495098,126.38299 C 77.175028,123.35799 76.697588,119.47864 76.434128,117.76220 C 75.997928,114.92045 76.236388,114.58516 79.101168,114.01220 C 85.224478,112.78754 87.997238,113.21479 87.997238,115.38299 C 87.997238,117.00204 87.330568,117.38299 84.497238,117.38299 C 82.052798,117.38299 80.997238,117.83537 80.997238,118.88299 C 80.997238,119.82772 81.949828,120.38299 83.570558,120.38299 C 85.481748,120.38299 86.058068,120.83328 85.810348,122.13299 C 85.626898,123.09549 84.517548,124.02041 83.345128,124.18837 C 81.829668,124.40548 81.352358,125.02496 81.693978,126.33133 C 82.089038,127.84202 82.870298,128.07558 86.085878,127.64428 L 89.997238,127.11965 L 89.997238,130.69230 C 89.997238,132.65726 89.547238,134.54307 88.997238,134.88299 C 88.447238,135.22291 87.997238,134.53104 87.997238,133.34549 z M 52.997238,133.38299 C 52.997238,132.83299 53.334738,132.38381 53.747238,132.38481 C 54.795468,132.38736 54.033128,120.09503 52.912988,118.93299 C 52.409328,118.41049 51.997238,117.67222 51.997238,117.29240 C 51.997238,116.28503 59.028528,115.62460 59.616958,116.57670 C 59.891028,117.02016 59.638718,117.38299 59.056258,117.38299 C 58.413328,117.38299 57.997238,120.09124 57.997238,124.27600 C 57.997238,129.89044 58.321848,131.30713 59.747238,131.91365 C 61.256638,132.55591 61.153518,132.76314 58.997238,133.42096 C 55.340418,134.53654 52.997238,134.52171 52.997238,133.38299 z M 53.997238,107.36577 C 83.582168,104.34048 87.183698,103.74841 84.879368,102.28898 C 81.197698,99.957211 48.330318,103.09767 37.519768,106.81417 C 33.204648,108.29763 34.570198,109.40134 39.997238,108.81659 C 41.922238,108.60918 48.222238,107.95631 53.997238,107.36577 z M 55.084638,92.371161 C 76.031768,90.082411 89.308928,87.829801 92.090388,86.092751 C 94.343038,84.685941 94.539698,80.411991 92.948908,67.434891 C 89.812588,41.849846 89.759048,41.620667 87.606338,44.564672 C 86.730848,45.761974 86.596218,48.198459 87.136748,53.063099 C 87.553528,56.814040 87.869388,62.132991 87.838648,64.882991 C 87.803188,68.054731 87.275788,65.677981 86.396278,58.382991 C 85.633718,52.057991 84.782338,46.284635 84.504328,45.553310 C 83.915178,44.003515 75.987768,44.564076 42.997238,48.488351 C 27.956178,50.277508 29.319248,49.251504 30.141668,58.164971 C 30.533338,62.409881 31.300558,70.774981 31.846608,76.754091 C 32.392658,82.733191 33.212438,87.955591 33.668338,88.359421 C 34.124228,88.763241 45.972238,87.830111 59.997238,86.285801 C 74.022238,84.741481 86.232918,83.456581 87.132088,83.430471 C 88.514698,83.390321 88.713128,82.341561 88.418198,76.632991 C 88.116058,70.784811 88.190538,70.417401 88.975718,73.882991 C 89.474158,76.082991 89.907908,79.503881 89.939608,81.484971 L 89.997238,85.086951 L 81.247238,85.721461 C 76.434738,86.070441 68.447238,86.787511 63.497238,87.314951 C 37.219148,90.114941 32.791048,90.510131 32.373578,90.092661 C 32.122938,89.842021 31.017308,80.957041 29.916628,70.348271 C 28.815948,59.739491 27.680288,50.679172 27.392938,50.214225 C 26.564888,48.874420 28.107918,48.622578 53.997238,45.872063 C 67.472238,44.440462 79.172238,43.014309 79.997238,42.702833 C 83.541498,41.364713 74.845318,40.335462 64.997238,40.927482 C 44.967158,42.131595 29.531218,45.232901 25.227588,48.917785 C 23.184598,50.667053 23.098648,51.377991 23.606878,62.324001 C 24.319968,77.682191 26.625308,91.524041 28.738078,93.132991 C 30.929448,94.801801 33.526248,94.726711 55.084638,92.371161 z M 61.044708,77.471691 C 60.346018,76.166181 60.329138,75.295901 60.994538,74.884661 C 62.332678,74.057641 63.997238,75.165431 63.997238,76.882991 C 63.997238,79.195361 62.162928,79.561101 61.044708,77.471691 z M 55.076188,76.966321 C 55.032768,75.912161 55.269108,75.321531 55.601408,75.653821 C 55.933698,75.986121 55.969218,76.848621 55.680348,77.570491 C 55.361128,78.368221 55.124168,78.131271 55.076188,76.966321 z M 66.704548,76.371741 C 66.418508,75.277931 66.544208,74.382991 66.983868,74.382991 C 68.158798,74.382991 69.051528,77.231401 68.067258,77.839721 C 67.603808,78.126151 66.990588,77.465561 66.704548,76.371741 z M 35.742608,68.132991 C 35.484878,67.445491 35.594278,65.983871 35.985718,64.884951 C 36.580218,63.215951 36.775938,63.421811 37.174138,66.134951 C 37.638538,69.299111 36.680868,70.635781 35.742608,68.132991 z M 38.380938,66.775661 C 37.744948,64.241661 39.050928,62.413621 41.497238,62.413621 C 42.047238,62.413621 41.822238,62.856721 40.997238,63.398301 C 39.663908,64.273581 39.663908,64.492401 40.997238,65.367681 C 42.000288,66.026141 42.083118,66.357441 41.247238,66.367681 C 40.559738,66.376101 39.997238,66.859551 39.997238,67.442011 C 39.997238,68.024471 40.447238,68.222911 40.997238,67.882991 C 41.547238,67.543071 41.997238,67.741511 41.997238,68.323971 C 41.997238,70.542841 39.004888,69.261661 38.380938,66.775661 z M 33.027648,65.932991 C 33.005468,63.781661 33.296028,63.281781 34.100858,64.086621 C 34.891808,64.877561 34.900428,65.713351 34.131268,67.036611 C 33.190438,68.655241 33.054308,68.519101 33.027648,65.932991 z M 43.390248,66.801201 C 43.724098,65.931221 43.997238,64.581221 43.997238,63.801201 C 43.997238,61.290001 45.769388,62.290621 46.859328,65.417231 C 47.486208,67.215481 47.526058,68.209821 46.957158,67.858221 C 46.429198,67.531921 45.968718,66.504011 45.933848,65.573971 C 45.887928,64.348791 45.621338,64.502781 44.966078,66.132991 C 44.468658,67.370491 43.774038,68.382991 43.422478,68.382991 C 43.070908,68.382991 43.056408,67.671191 43.390248,66.801201 z M 48.418648,65.925901 C 48.079478,64.574511 48.028828,62.887011 48.306108,62.175901 C 48.583388,61.464801 49.132118,62.338191 49.525498,64.116761 C 49.918888,65.895331 50.635958,67.106271 51.118988,66.807741 C 51.602028,66.509211 51.997238,66.741511 51.997238,67.323971 C 51.997238,69.468271 49.015348,68.303321 48.418648,65.925901 z M 54.997238,64.382991 C 54.997238,62.162441 55.451918,61.403501 56.747238,61.461941 C 57.792678,61.509101 57.993978,61.743951 57.247238,62.045271 C 55.730958,62.657101 55.566908,66.382991 57.056258,66.382991 C 57.638718,66.382991 57.837158,65.932991 57.497238,65.382991 C 57.157318,64.832991 57.355758,64.382991 57.938218,64.382991 C 58.520678,64.382991 58.997238,65.057991 58.997238,65.882991 C 58.997238,66.716321 58.108348,67.382991 56.997238,67.382991 C 55.441678,67.382991 54.997238,66.716321 54.997238,64.382991 z M 60.042958,65.882991 C 60.034658,64.782991 60.470968,63.207991 61.012548,62.382991 C 61.887828,61.049661 62.106648,61.049661 62.981928,62.382991 C 63.523508,63.207991 63.966608,64.557991 63.966608,65.382991 C 63.966608,66.616441 63.812398,66.639551 63.098758,65.513011 C 62.398018,64.406841 62.021698,64.503121 61.144478,66.013011 C 60.101168,67.808791 60.057458,67.803631 60.042958,65.882991 z M 65.470248,66.339321 C 65.145168,65.813341 65.552798,65.382991 66.376068,65.382991 C 67.256488,65.382991 67.810898,64.559341 67.722288,63.382991 C 67.553338,61.140131 66.427128,60.730652 65.659518,62.632991 C 65.368928,63.353141 65.121668,63.110121 65.076188,62.059671 C 64.949938,59.143838 68.277478,60.490112 68.682538,63.518741 C 69.038878,66.183011 66.662968,68.269191 65.470248,66.339321 z M 70.381278,64.941401 C 70.077028,64.148531 70.038948,62.686031 70.296668,61.691401 C 70.667838,60.258892 70.789348,60.350681 70.881238,62.132991 C 70.947318,63.414771 71.642718,64.382991 72.497238,64.382991 C 73.322238,64.382991 73.997238,64.832991 73.997238,65.382991 C 73.997238,66.929241 71.003808,66.563681 70.381278,64.941401 z M 74.997238,62.382991 C 74.997238,60.162440 75.451918,59.403503 76.747238,59.461938 C 77.860128,59.512144 78.026968,59.729578 77.205498,60.059184 C 76.213578,60.457186 76.183968,60.903062 77.077948,61.980241 C 77.980568,63.067831 77.933778,63.386431 76.869678,63.398301 C 75.791698,63.410331 75.819058,63.621591 76.997238,64.382991 C 78.279138,65.211421 78.242788,65.354591 76.747238,65.367681 C 75.466058,65.378891 74.997238,64.579301 74.997238,62.382991 z M 79.754088,62.885541 C 79.170828,59.840357 80.336778,58.192319 82.489888,59.018544 C 83.135598,59.266326 83.663908,60.792547 83.663908,62.410151 C 83.663908,64.631981 83.361618,65.100361 82.427818,64.325381 C 81.560968,63.605961 81.062748,63.685381 80.759958,64.591251 C 80.522488,65.301711 80.069848,64.534141 79.754088,62.885541 z M 55.997238,53.942008 C 55.997238,51.629788 57.720828,51.217988 58.289928,53.394238 C 58.626958,54.683042 58.315018,55.382991 57.403618,55.382991 C 56.630108,55.382991 55.997238,54.734549 55.997238,53.942008 z M 42.174878,32.454736 C 46.202178,31.944196 53.997238,31.017149 59.497238,30.394632 C 73.415148,28.819333 84.158768,26.473027 86.358438,24.528395 C 88.393978,22.728877 88.348818,18.590062 86.073168,-1.6170092 C 84.556678,-15.082948 84.154618,-16.614632 82.321018,-15.911013 C 81.001568,-15.404695 80.881628,-13.786874 81.491198,-4.7180782 C 81.883108,1.1125098 81.976038,5.6579908 81.697708,5.3829908 C 81.419378,5.1079908 80.683168,0.60799080 80.061678,-4.6170092 C 78.865148,-14.676537 77.562428,-16.989360 73.585548,-16.114606 C 72.436978,-15.861966 66.547238,-15.200882 60.497238,-14.645531 C 44.546278,-13.181334 30.995058,-11.689719 27.113688,-10.970923 L 23.730138,-10.344320 L 24.316328,-2.7306642 C 25.328538,10.416253 27.026508,27.745592 27.332438,28.051528 C 27.623438,28.342529 70.712688,23.918389 78.607098,22.786960 L 82.716958,22.197934 L 82.395468,15.040463 C 82.121428,8.9393968 82.207408,8.4733698 82.977978,11.882991 C 83.475178,14.082991 83.907908,17.733607 83.939608,19.995472 L 83.997238,24.107952 L 75.247238,24.775232 C 70.434738,25.142236 63.122238,25.852562 58.997238,26.353736 C 43.699058,28.212411 27.019068,29.738136 26.598858,29.317228 C 26.184498,28.902184 21.991658,-7.4851032 21.995428,-10.633411 C 21.996908,-11.876581 26.184128,-12.579261 45.233908,-14.533189 C 58.014068,-15.844045 69.601568,-17.237147 70.983908,-17.628971 L 73.497238,-18.341377 L 70.712998,-19.655307 C 68.441728,-20.727159 65.678128,-20.744714 55.712998,-19.750592 C 34.503048,-17.634684 24.321928,-15.556130 19.789358,-12.416508 L 17.081488,-10.540812 L 17.585058,2.6710898 C 18.008148,13.771331 19.775688,27.043048 21.508838,32.132991 C 22.025238,33.649563 31.576688,33.798267 42.174878,32.454736 z M 45.997238,12.018868 C 45.997238,11.038421 47.421568,10.471097 50.497238,10.226479 C 52.972238,10.029634 54.997238,10.209322 54.997238,10.625785 C 54.997238,11.262120 51.528668,11.742192 50.747238,11.214011 C 50.609738,11.121072 49.484738,11.586905 48.247238,12.249195 C 46.399948,13.237835 45.997238,13.196610 45.997238,12.018868 z M 55.997238,10.442008 C 55.997238,9.8595488 56.447238,9.3829908 56.997238,9.3829908 C 57.547238,9.3829908 57.997238,9.5814328 57.997238,9.8239738 C 57.997238,10.066515 57.547238,10.543072 56.997238,10.882991 C 56.447238,11.222910 55.997238,11.024467 55.997238,10.442008 z M 36.067528,4.1920078 C 36.028868,2.7119668 36.447238,1.2229098 36.997238,0.88299080 C 38.191078,0.14515480 38.191078,2.1047658 36.997238,4.8829908 C 36.229838,6.6688248 36.130278,6.5948318 36.067528,4.1920078 z M 31.997238,4.4906408 C 31.997238,3.8165148 31.552388,3.5398868 31.008688,3.8759118 C 30.427828,4.2349078 30.283068,3.8017058 30.657688,2.8254698 C 31.249618,1.2829058 31.362648,1.2845548 32.237898,2.8485348 C 32.756368,3.7749888 32.914318,4.7992448 32.588898,5.1246608 C 32.263488,5.4500758 31.997238,5.1647668 31.997238,4.4906408 z M 34.192188,2.8829908 C 34.171808,1.2329908 34.379248,0.43692680 34.653178,1.1139588 C 34.927098,1.7909918 34.943768,3.1409918 34.690228,4.1139588 C 34.436688,5.0869268 34.212568,4.5329908 34.192188,2.8829908 z M 38.561528,3.0898628 C 38.937058,2.1036418 39.496218,1.5486418 39.804108,1.8565298 C 40.111998,2.1644168 39.804748,2.9713238 39.121328,3.6496578 C 38.133708,4.6299248 38.018848,4.5150608 38.561528,3.0898628 z M 42.076188,2.9663238 C 42.032768,1.9121578 42.269108,1.3215328 42.601408,1.6538238 C 42.933698,1.9861158 42.969218,2.8486158 42.680348,3.5704908 C 42.361128,4.3682238 42.124168,4.1312668 42.076188,2.9663238 z M 43.997238,3.0887688 C 43.997238,2.2852798 44.715458,1.0318118 45.593278,0.30328280 C 46.986748,-0.85319220 47.145398,-0.72002020 46.843278,1.3525108 C 46.465098,3.9467888 43.997238,5.4523348 43.997238,3.0887688 z M 69.997238,1.6054968 C 69.997238,-0.16688120 70.420678,-1.6170092 70.938218,-1.6170092 C 72.789198,-1.6170092 73.086568,0.41736880 71.555168,2.6037428 C 70.006748,4.8144298 69.997238,4.8083388 69.997238,1.6054968 z M 51.300028,2.5912848 C 50.603058,2.1482148 50.440628,1.2836108 50.911288,0.52206280 C 51.510588,-0.44762620 51.860798,-0.24675220 52.264878,1.2984558 C 52.564698,2.4449498 52.739628,3.3760998 52.653618,3.3676778 C 52.567608,3.3592558 51.958488,3.0098788 51.300028,2.5912848 z M 59.018708,0.38299080 L 59.009558,-3.1170092 L 60.521288,-0.21822820 C 61.352728,1.3761018 61.799958,2.9136018 61.515128,3.1984388 C 61.230288,3.4832758 60.990348,3.0788238 60.981928,2.2996578 C 60.969318,1.1331938 60.795408,1.1479118 59.997238,2.3829908 C 59.269788,3.5086348 59.025578,3.0094938 59.018708,0.38299080 z M 73.918148,-0.36791620 C 74.395988,-3.8190942 74.465698,-3.8888052 74.795418,-1.2451872 C 74.992408,0.33431580 74.758818,2.0214078 74.276318,2.5039068 C 73.773298,3.0069348 73.620498,1.7818178 73.918148,-0.36791620 z M 64.207808,0.84495380 C 63.142468,-0.36294420 63.185908,-0.61700920 64.457808,-0.61700920 C 65.304498,-0.61700920 65.997238,0.057990799 65.997238,0.88299080 C 65.997238,2.7066578 65.846988,2.7034638 64.207808,0.84495380 z M 66.997238,1.5010248 C 66.997238,0.95102480 67.447238,0.22290980 67.997238,-0.11700920 C 68.547238,-0.45692820 68.997238,-0.28504320 68.997238,0.26495680 C 68.997238,0.81495680 68.547238,1.5430718 67.997238,1.8829908 C 67.447238,2.2229098 66.997238,2.0510248 66.997238,1.5010248 z M 2.9972385,98.455351 C 2.9972385,97.945151 2.5490285,94.232651 2.0012185,90.205351 C 0.63475845,80.159711 -2.7339015,47.437263 -4.5176015,26.882991 C -5.3289915,17.532991 -6.4416715,6.0579908 -6.9902215,1.3829908 C -8.2541115,-9.3885032 -8.2570015,-12.617009 -7.0027615,-12.617009 C -6.4527615,-12.617009 -6.0027615,-10.832481 -6.0027615,-8.6513912 C -6.0027615,-4.8077512 -4.7027715,6.0981878 -1.5286515,28.882991 C 0.13902845,40.854045 3.8027385,80.491301 4.3176185,92.132991 C 4.4939685,96.120491 4.2690285,99.382991 3.8177485,99.382991 C 3.3664685,99.382991 2.9972385,98.965551 2.9972385,98.455351 z "
     id="path1630" />
  <g
     transform="matrix(0.999147,-4.130086e-2,4.130086e-2,0.999147,-5.617313,11.76637)"
     id="g4904">
    <path
       style="fill:#000000;fill-opacity:1.0000000"
       d="M 384.12500,66.312500 C 384.12500,66.312500 377.74705,67.065025 366.48304,68.224720 C 355.21904,69.384416 339.06898,70.951283 339.06898,70.951283 C 339.06898,70.951283 327.19422,71.907393 311.04416,73.474260 C 294.89410,75.041127 274.46875,77.218750 274.46875,77.218750 L 281.18750,142.43750 L 390.43750,131.09375 C 388.00728,103.97910 385.17485,76.193929 384.12500,66.312500 z M 377.81250,75.687500 C 379.67846,75.685464 379.64959,76.343345 379.87500,78.687500 C 380.18038,81.863470 379.80504,81.839267 375.62500,82.093750 C 371.39407,82.348240 371.43471,82.323181 371.09375,79.343750 C 370.75168,76.354520 370.77624,76.325077 375.21875,75.875000 C 376.34198,75.761204 377.19052,75.688179 377.81250,75.687500 z M 357.96875,78.281250 C 361.13657,78.114806 362.46962,78.480986 363.81250,79.625000 C 366.41389,81.841166 365.71409,84.088662 368.56250,106.21875 C 370.15329,119.19585 370.81516,125.06194 368.56250,126.46875 C 365.78104,128.20580 352.07214,129.14875 331.12500,131.43750 C 309.56661,133.79305 306.97263,133.88756 304.78125,132.21875 C 302.66848,130.60980 301.80891,116.90840 299.65625,101.40625 C 299.14802,90.460240 298.95702,88.593020 301.00000,86.843750 C 305.87945,84.310520 321.03243,81.204112 341.06250,80.000000 C 349.80140,79.128163 354.80093,78.447694 357.96875,78.281250 z M 361.87500,81.468750 C 357.81835,81.731217 343.53751,83.505899 330.06250,84.937500 C 304.17318,87.688015 304.23812,87.534273 303.43750,89.281250 C 303.72485,91.069503 304.86807,98.828717 305.96875,109.43750 C 307.06943,120.04627 308.18687,128.90561 308.43750,129.15625 C 308.85497,129.57372 313.28442,129.20624 339.56250,126.40625 C 344.51250,125.87881 366.06251,124.15625 366.06250,124.15625 L 366.00000,120.56250 C 365.96830,118.58141 365.52969,115.16875 365.03125,112.96875 L 363.18750,92.125000 C 362.64697,87.260360 362.17014,84.091154 361.87500,81.468750 z M 356.03125,83.281250 C 357.68394,83.163768 358.73650,83.167646 359.40625,83.312500 C 360.29925,83.505639 360.51700,83.932174 360.56250,84.625000 L 363.87500,114.18750 C 364.16993,119.89607 365.28886,122.67860 363.90625,122.71875 C 363.00708,122.74486 350.08751,123.83068 336.06250,125.37500 C 322.03750,126.91931 310.17464,127.84132 309.71875,127.43750 C 309.26285,127.03367 306.57917,101.49491 306.18750,97.250000 C 305.16149,86.504263 302.18918,89.962415 319.06250,87.562500 C 340.71163,85.126062 351.07319,83.633695 356.03125,83.281250 z M 288.21875,84.812500 C 290.08471,84.810464 290.05586,85.468344 290.28125,87.812500 C 290.58663,90.988470 290.24253,90.964273 286.06250,91.218750 C 281.83157,91.473240 281.84097,91.448179 281.50000,88.468750 C 281.15793,85.479520 281.21375,85.450082 285.65625,85.000000 C 286.77948,84.886204 287.59677,84.813179 288.21875,84.812500 z M 379.46875,90.750000 C 381.33471,90.747964 381.30585,91.405843 381.53125,93.750000 C 381.83663,96.925970 381.46130,96.901771 377.28125,97.156250 C 373.05032,97.410740 373.05972,97.385678 372.71875,94.406250 C 372.37668,91.417020 372.43250,91.387581 376.87500,90.937500 C 377.99823,90.823704 378.84677,90.750679 379.46875,90.750000 z M 289.62500,99.843750 C 291.49096,99.841714 291.46209,100.49959 291.68750,102.84375 C 291.99288,106.01972 291.64879,105.99552 287.46875,106.25000 C 283.23782,106.50449 283.24723,106.47943 282.90625,103.50000 C 282.56418,100.51077 282.61999,100.48133 287.06250,100.03125 C 288.18573,99.917454 289.00302,99.844429 289.62500,99.843750 z M 380.93750,106.75000 C 382.80346,106.74796 382.77461,107.40585 383.00000,109.75000 C 383.30538,112.92597 382.96128,112.90177 378.78125,113.15625 C 374.55032,113.41074 374.55972,113.38568 374.21875,110.40625 C 373.87668,107.41702 373.93250,107.38758 378.37500,106.93750 C 379.49823,106.82370 380.31552,106.75068 380.93750,106.75000 z M 291.31250,115.28125 C 293.17846,115.27921 293.14960,115.96835 293.37500,118.31250 C 293.68038,121.48847 293.33628,121.46427 289.15625,121.71875 C 284.92532,121.97324 284.93472,121.91693 284.59375,118.93750 C 284.25168,115.94827 284.30750,115.91883 288.75000,115.46875 C 289.87323,115.35496 290.69052,115.28193 291.31250,115.28125 z M 381.84375,121.56250 C 383.70971,121.56046 383.68085,122.24960 383.90625,124.59375 C 384.21163,127.76972 383.83628,127.74552 379.65625,128.00000 C 375.42532,128.25449 375.43472,128.19818 375.09375,125.21875 C 374.75168,122.22952 374.80750,122.20008 379.25000,121.75000 C 380.37323,121.63620 381.22177,121.56318 381.84375,121.56250 z M 293.06250,131.06250 C 294.92846,131.06046 294.89960,131.71835 295.12500,134.06250 C 295.43038,137.23847 295.08630,137.21428 290.90625,137.46875 C 286.67532,137.72324 286.68471,137.69817 286.34375,134.71875 C 286.00168,131.72952 286.05749,131.70008 290.50000,131.25000 C 291.62323,131.13621 292.44052,131.06318 293.06250,131.06250 z "
       id="path3206"
       sodipodi:nodetypes="csssccccccccccccccccccccccccccccccccccccccccccccccccccccccccccccccccccccccccccccccccccc" />
    <text
       xml:space="preserve"
       style="font-size:24.000002;font-style:normal;font-variant:normal;font-weight:normal;font-stretch:normal;line-height:100.00000%;writing-mode:lr-tb;text-anchor:start;fill:#000000;fill-opacity:1.0000000;stroke:none;stroke-width:1.0000000pt;stroke-linecap:butt;stroke-linejoin:miter;stroke-opacity:1.0000000;font-family:Apollo"
       x="298.79324"
       y="148.68829"
       id="text4771"
       sodipodi:linespacing="100.00000%"
       transform="matrix(0.994046,-0.108962,0.108962,0.994046,0.000000,0.000000)"><tspan
         sodipodi:role="line"
         id="tspan4773"
         x="298.79324"
         y="148.68829">GOP</tspan></text>
  </g>
  <text
     transform="matrix(0.998010,-6.305755e-2,6.305755e-2,0.998010,0.000000,0.000000)"
     sodipodi:linespacing="100.00000%"
     id="text4775"
     y="196.38371"
     x="302.53568"
     style="font-size:24.000006;font-style:normal;font-variant:normal;font-weight:normal;font-stretch:normal;line-height:100.00000%;writing-mode:lr-tb;text-anchor:start;fill:#000000;fill-opacity:1.0000000;stroke:none;stroke-width:1.0000000pt;stroke-linecap:butt;stroke-linejoin:miter;stroke-opacity:1.0000000;font-family:Apollo"
     xml:space="preserve"><tspan
       y="196.38371"
       x="302.53568"
       id="tspan4777"
       sodipodi:role="line">chop</tspan></text>
  <path
     sodipodi:nodetypes="ccccccssscccccccccccccccccccccccccccccccccccccccccccccccccccccccccccccccccccccccccccccccccc"
     id="path4897"
     d="M 281.19619,142.43727 L 390.85280,136.13795 L 281.19619,142.43727 z M 390.89652,136.54665 L 281.20869,142.84453 L 286.69843,207.99046 C 286.69843,207.99046 288.58968,208.15045 310.75385,205.78022 C 332.91803,203.40999 352.21025,201.44118 368.43322,200.95258 C 370.36204,200.89449 375.82128,201.51974 377.50894,201.47614 C 381.84472,201.36414 391.06355,200.98178 391.06355,200.98178 L 392.15172,189.37932 C 392.50275,178.54117 391.81096,157.72469 390.89652,136.54665 z M 384.06263,140.92400 C 385.92670,141.00792 385.86757,141.66378 385.98475,144.01583 C 386.14351,147.20249 385.76970,147.16102 381.58236,147.22269 C 377.34420,147.28202 377.38595,147.25886 377.18259,144.26689 C 376.97858,141.26507 377.00447,141.23680 381.46300,140.99183 C 382.59028,140.92989 383.44128,140.89603 384.06263,140.92400 z M 364.44369,143.05381 C 368.06259,143.11596 369.23432,143.59691 370.29041,144.48089 C 372.32683,146.18545 372.55579,159.88070 373.99210,175.46556 C 373.99558,186.42336 374.10037,188.29740 371.97898,189.95071 C 366.98802,192.25649 351.73926,194.66305 331.67496,194.94323 C 314.13539,195.87997 311.47668,196.70899 308.89917,194.29968 C 306.40262,191.96603 307.20663,189.72193 305.38064,167.48413 C 304.38930,154.44752 303.99834,148.55717 306.31341,147.25561 C 309.17194,145.64853 322.90973,145.33805 343.94007,144.01662 C 354.76208,143.33662 360.82479,142.99165 364.44369,143.05381 z M 367.44833,146.41453 C 363.38389,146.48986 349.00379,147.63461 335.47714,148.44399 C 309.48859,149.99905 309.59322,149.81868 308.71296,151.52693 C 308.91763,153.32653 309.70224,161.13017 310.31307,171.77839 C 310.92391,182.42660 311.59940,191.35779 311.83823,191.61971 C 312.23603,192.05597 316.67914,191.86170 343.05832,190.27513 C 348.02737,189.97626 369.63385,189.24819 369.63385,189.24819 L 369.73695,185.65537 C 369.79654,183.67492 369.54680,180.24712 369.15024,178.02649 L 368.26714,157.15115 C 367.95126,152.26677 367.62235,149.04774 367.44833,146.41453 z M 361.52729,147.95592 C 363.18656,147.91483 364.23490,147.96705 364.89727,148.14260 C 365.78042,148.37667 365.97831,148.81278 365.99183,149.50697 L 367.90786,179.18925 C 367.93952,184.90535 368.92908,187.73647 367.54610,187.71289 C 366.64668,187.69755 353.69080,188.18709 339.60954,189.08375 C 325.52828,189.98039 313.66674,190.35643 313.22995,189.93203 C 312.79314,189.50763 311.28869,163.87234 311.09298,159.61390 C 310.56304,148.83230 307.40336,152.14842 324.36934,150.52830 C 346.10773,149.09167 356.54947,148.07920 361.52729,147.95592 z M 294.52064,146.55541 C 296.38472,146.63932 296.32415,147.32640 296.44133,149.67845 C 296.60009,152.86511 296.25748,152.82508 292.07015,152.88675 C 287.83199,152.94608 287.84398,152.89027 287.64060,149.89829 C 287.43659,146.89648 287.49369,146.86964 291.95223,146.62467 C 293.07951,146.56273 293.89929,146.52744 294.52064,146.55541 z M 385.49110,156.75662 C 387.35517,156.84053 387.29604,157.49639 387.41322,159.84844 C 387.57198,163.03511 387.19817,162.99364 383.01083,163.05531 C 378.77266,163.11464 378.81442,163.09148 378.61106,160.09950 C 378.40705,157.09769 378.43294,157.06941 382.89146,156.82444 C 384.01874,156.76251 384.86975,156.72865 385.49110,156.75662 z M 295.27674,162.04418 C 297.14081,162.12811 297.08167,162.78395 297.19886,165.13601 C 297.35762,168.32267 296.98380,168.28121 292.79647,168.34287 C 288.55830,168.40220 288.60005,168.37904 288.39670,165.38707 C 288.19268,162.38525 288.24979,162.35841 292.70832,162.11345 C 293.83560,162.05152 294.65538,162.01621 295.27674,162.04418 z M 385.90282,171.57257 C 387.76689,171.65648 387.70777,172.31234 387.82494,174.66439 C 387.98370,177.85105 387.60986,177.80959 383.42255,177.87126 C 379.18438,177.93059 379.22615,177.90742 379.02278,174.91545 C 378.81877,171.91363 378.87585,171.88680 383.33440,171.64183 C 384.46168,171.57990 385.28147,171.54459 385.90282,171.57257 z M 296.01790,176.49992 C 297.88197,176.58384 297.79018,177.26948 297.90736,179.62152 C 298.06612,182.80819 297.72352,182.76818 293.53619,182.82983 C 289.29802,182.88916 289.31000,182.83333 289.10664,179.84137 C 288.90263,176.83955 288.95973,176.81272 293.41826,176.56775 C 294.54554,176.50582 295.39655,176.47195 296.01790,176.49992 z M 386.61663,186.62143 C 388.48070,186.70534 388.42157,187.36119 388.53875,189.71325 C 388.69751,192.89992 388.32370,192.85845 384.13636,192.92012 C 379.89820,192.97945 379.93995,192.95630 379.73659,189.96431 C 379.53258,186.96250 379.58968,186.93566 384.04821,186.69069 C 385.17549,186.62875 385.99528,186.59346 386.61663,186.62143 z M 296.91424,192.33928 C 298.77831,192.42320 298.71919,193.07906 298.83636,195.43111 C 298.99512,198.61777 298.62130,198.57630 294.43397,198.63797 C 290.19581,198.69730 290.20636,198.67270 290.00298,195.68073 C 289.79897,192.67891 289.85607,192.65207 294.31461,192.40711 C 295.44189,192.34518 296.29289,192.31131 296.91424,192.33928 z "
     style="fill:#000000;fill-opacity:1.0000000" />
</svg>
